<mxfile host="www.draw.io" modified="2019-11-27T02:22:18.297Z" agent="Mozilla/5.0 (Windows NT 10.0; Win64; x64) AppleWebKit/537.36 (KHTML, like Gecko) Chrome/78.0.3904.108 Safari/537.36" etag="FxFE93i1JH_0mNoR2Y6C" version="12.3.1" type="github" pages="1">
  <diagram id="OSrzJBDkfX2Hkb3aKiG7" name="第 1 页">
    <mxGraphModel dx="1422" dy="762" grid="1" gridSize="10" guides="1" tooltips="1" connect="1" arrows="1" fold="1" page="1" pageScale="1" pageWidth="827" pageHeight="1169" math="0" shadow="0">
      <root>
        <mxCell id="0"/>
        <mxCell id="1" parent="0"/>
        <mxCell id="lGmbp9dZUHEOybYDL24D-4" style="edgeStyle=orthogonalEdgeStyle;rounded=0;orthogonalLoop=1;jettySize=auto;html=1;exitX=1;exitY=0.25;exitDx=0;exitDy=0;entryX=0;entryY=0.25;entryDx=0;entryDy=0;" edge="1" parent="1" source="lGmbp9dZUHEOybYDL24D-1" target="lGmbp9dZUHEOybYDL24D-2">
          <mxGeometry relative="1" as="geometry"/>
        </mxCell>
        <mxCell id="lGmbp9dZUHEOybYDL24D-9" style="edgeStyle=orthogonalEdgeStyle;rounded=0;orthogonalLoop=1;jettySize=auto;html=1;exitX=1;exitY=0.75;exitDx=0;exitDy=0;entryX=0;entryY=0.75;entryDx=0;entryDy=0;" edge="1" parent="1" source="lGmbp9dZUHEOybYDL24D-1" target="lGmbp9dZUHEOybYDL24D-2">
          <mxGeometry relative="1" as="geometry"/>
        </mxCell>
        <mxCell id="lGmbp9dZUHEOybYDL24D-1" value="客户端" style="rounded=0;whiteSpace=wrap;html=1;" vertex="1" parent="1">
          <mxGeometry x="100" y="194" width="120" height="390" as="geometry"/>
        </mxCell>
        <mxCell id="lGmbp9dZUHEOybYDL24D-7" style="edgeStyle=orthogonalEdgeStyle;rounded=0;orthogonalLoop=1;jettySize=auto;html=1;entryX=1;entryY=0.5;entryDx=0;entryDy=0;" edge="1" parent="1" source="lGmbp9dZUHEOybYDL24D-2" target="lGmbp9dZUHEOybYDL24D-1">
          <mxGeometry relative="1" as="geometry"/>
        </mxCell>
        <mxCell id="lGmbp9dZUHEOybYDL24D-2" value="服务端" style="rounded=0;whiteSpace=wrap;html=1;" vertex="1" parent="1">
          <mxGeometry x="560" y="194" width="120" height="390" as="geometry"/>
        </mxCell>
        <mxCell id="lGmbp9dZUHEOybYDL24D-6" value="第一次握手&lt;br&gt;SYN=1，ACK=0，seq=x" style="text;html=1;strokeColor=none;fillColor=none;align=center;verticalAlign=middle;whiteSpace=wrap;rounded=0;" vertex="1" parent="1">
          <mxGeometry x="310" y="260" width="160" height="30" as="geometry"/>
        </mxCell>
        <mxCell id="lGmbp9dZUHEOybYDL24D-8" value="第二次握手&lt;br&gt;ack=x+1，SYN=1，ACK=1，seq=y" style="text;html=1;strokeColor=none;fillColor=none;align=center;verticalAlign=middle;whiteSpace=wrap;rounded=0;" vertex="1" parent="1">
          <mxGeometry x="290" y="359" width="200" height="30" as="geometry"/>
        </mxCell>
        <mxCell id="lGmbp9dZUHEOybYDL24D-10" value="第三次握手&lt;br&gt;ack=y+1，ACK=1，seq=x+1" style="text;html=1;strokeColor=none;fillColor=none;align=center;verticalAlign=middle;whiteSpace=wrap;rounded=0;" vertex="1" parent="1">
          <mxGeometry x="290" y="458" width="200" height="30" as="geometry"/>
        </mxCell>
      </root>
    </mxGraphModel>
  </diagram>
</mxfile>
